<svg xmlns="http://www.w3.org/2000/svg" viewBox="0 0 849.15809 980.52305"><defs><style>.cls-1{fill:#fff;stroke:#12465b;stroke-width:12px;}.cls-1,.cls-18,.cls-19{stroke-miterlimit:10;}.cls-14,.cls-17,.cls-2{opacity:0.5;}.cls-3,.cls-31{fill:none;}.cls-3{stroke:#33556c;stroke-width:4px;}.cls-20,.cls-21,.cls-22,.cls-23,.cls-24,.cls-25,.cls-26,.cls-27,.cls-28,.cls-29,.cls-3,.cls-30,.cls-31{stroke-linecap:round;stroke-linejoin:round;}.cls-4{font-size:122.25437px;fill:#12465b;font-family:Calibri-Light, Calibri;font-weight:300;}.cls-5{letter-spacing:-0.00977em;}.cls-6,.cls-7{font-size:145.34685px;font-family:Calibri;font-weight:400;}.cls-7{letter-spacing:-0.00488em;}.cls-10,.cls-18,.cls-8,.cls-9{fill:#053158;}.cls-15,.cls-8{opacity:0.45;}.cls-9{opacity:0.37;}.cls-10{opacity:0.2;}.cls-11,.cls-13,.cls-14,.cls-26{fill:#9ebf57;}.cls-12,.cls-15,.cls-16,.cls-17,.cls-30{fill:#e27726;}.cls-13,.cls-16{opacity:0.75;}.cls-18,.cls-19,.cls-20,.cls-21,.cls-22,.cls-23,.cls-24,.cls-25,.cls-26,.cls-27,.cls-28,.cls-29,.cls-30,.cls-31{stroke:#333;}.cls-18,.cls-20,.cls-21,.cls-22,.cls-23,.cls-24,.cls-25,.cls-26,.cls-27,.cls-28,.cls-29,.cls-30,.cls-31{stroke-width:3px;}.cls-19,.cls-29{fill:#46aaa2;}.cls-19{stroke-width:2px;}.cls-20{fill:#014270;}.cls-21{fill:#0d3049;}.cls-22{fill:#33556c;}.cls-23{fill:#0184ac;}.cls-24{fill:#f5b630;}.cls-25{fill:#27a9ba;}.cls-27{fill:#05426d;}.cls-28{fill:#079fb4;}</style></defs><g id="Capa_1" data-name="Capa 1"><polygon class="cls-1" points="6 248.595 424.579 6.928 843.158 248.595 843.158 731.928 424.579 973.595 6 731.928 6 248.595"/><g class="cls-2"><line class="cls-3" x1="424.57906" y1="439.00269" x2="424.57906" y2="484.2617"/><line class="cls-3" x1="424.57906" y1="86.92835" x2="424.57906" y2="356.7893"/><line class="cls-3" x1="424.57906" y1="484.2617" x2="344.83695" y2="528.56069"/><line class="cls-3" x1="240.97904" y1="592.89479" x2="78.6338" y2="688.95179"/><line class="cls-3" x1="424.57906" y1="484.2617" x2="443.97008" y2="495.73506"/><line class="cls-3" x1="561.19458" y1="565.09501" x2="773.83779" y2="690.91274"/></g><text class="cls-4" transform="translate(171.32365 780.16858)">p<tspan class="cls-5" x="63.51514" y="0">a</tspan><tspan x="119.8667" y="0">thly</tspan><tspan class="cls-6" x="304.44189" y="0">X</tspan><tspan class="cls-7" x="379.8833" y="0">Y</tspan><tspan class="cls-6" x="450.00146" y="0">Z</tspan></text><circle class="cls-8" cx="130.85061" cy="500.84501" r="13.5"/><circle class="cls-9" cx="319.63806" cy="293.15057" r="11.51782"/><circle class="cls-9" cx="531.12589" cy="540.03456" r="10.58349"/><circle class="cls-8" cx="734.10077" cy="578.59501" r="13.5"/><circle class="cls-10" cx="461.4341" cy="484.2617" r="5.29174"/><circle class="cls-10" cx="153.2814" cy="434.09644" r="5.29174"/><circle class="cls-10" cx="590.05918" cy="557.23042" r="5.29174"/><circle class="cls-11" cx="186.27639" cy="645.34213" r="10.58349"/><circle class="cls-12" cx="125.55887" cy="294.00848" r="13.5"/><circle class="cls-13" cx="367.47569" cy="562.52216" r="11.51782"/><circle class="cls-14" cx="299.64976" cy="640.05039" r="5.29174"/><circle class="cls-13" cx="424.57905" cy="403.26587" r="11.51782"/><circle class="cls-13" cx="473.95192" cy="278.11807" r="11.51782"/><circle class="cls-13" cx="604.90537" cy="201.29733" r="11.51782"/><circle class="cls-14" cx="144.35061" cy="605.81724" r="5.29174"/><circle class="cls-14" cx="403.78477" cy="518.86759" r="5.29174"/><circle class="cls-14" cx="453.60077" cy="341.59501" r="5.29174"/><circle class="cls-14" cx="505.05147" cy="249.59501" r="5.29174"/><circle class="cls-15" cx="270.70738" cy="372.66453" r="5.29174"/><circle class="cls-16" cx="279.29086" cy="444.67992" r="10.58349"/><circle class="cls-16" cx="461.4341" cy="626.48354" r="10.58349"/><circle class="cls-16" cx="645.02791" cy="524.15933" r="10.58349"/><circle class="cls-12" cx="747.60077" cy="376.26587" r="13.5"/><circle class="cls-15" cx="327.63047" cy="506.88676" r="5.29174"/><circle class="cls-14" cx="339.54521" cy="605.81724" r="5.29174"/><circle class="cls-15" cx="540.32299" cy="645.26168" r="5.29174"/><circle class="cls-15" cx="671.48663" cy="403.26587" r="5.29174"/><circle class="cls-15" cx="166.32386" cy="244.30327" r="5.29174"/><circle class="cls-14" cx="547.00112" cy="218.1069" r="5.29174"/><circle class="cls-15" cx="645.02791" cy="462.72151" r="5.29174"/><circle class="cls-14" cx="247.3407" cy="650.55342" r="5.29174"/><circle class="cls-14" cx="409.07651" cy="468.01326" r="5.29174"/><circle class="cls-17" cx="626.52445" cy="581.92911" r="5.29174"/><circle class="cls-10" cx="679.09416" cy="576.63736" r="5.29174"/><circle class="cls-10" cx="378.05918" cy="416.22459" r="5.29174"/><circle class="cls-10" cx="372.76743" cy="341.59501" r="5.29174"/><circle class="cls-10" cx="175.17881" cy="362.08105" r="5.29174"/><circle class="cls-10" cx="226.17373" cy="311.22009" r="5.29174"/><circle class="cls-15" cx="266.70738" cy="288.92449" r="5.29174"/><circle class="cls-15" cx="598.76743" cy="626.48354" r="5.29174"/><circle class="cls-15" cx="239.26743" cy="231.25298" r="5.29174"/></g><g id="Capa_2" data-name="Capa 2"><circle class="cls-18" cx="51.85696" cy="615.54808" r="19.21056"/><circle class="cls-19" cx="800.17029" cy="303.98296" r="9.12508"/><path class="cls-20" d="M377.51979,567.29582c11.95055,1.27907,27.46215-9.55907,35.081-16.18992,12.76558-11.11008,16.4539-21.0669,28.50546-32.997,3.30339-1.41291,13.72124,1.82646,16.77231,2.04168,30.71685,2.16676,19.35941,10.52194,33.66667,19.33333,2.99064,1.84186,6.47967,13.99167,7.21452,17.94436-3.93558,13.5496-17.18472,19.11916-27.46559,25.65944-23.15362,14.72929-23.50126,23.97246-75.67807,30.42886-23.41047,2.89683-45.61851-2.02464-66.80431-11.57338-6.75986-3.04678-32.26578-8.97727-31.18926-18.65276,5.06182-4.37611,29.68512-1.45141,35.60518-1.91929C349.10189,580.11647,363.42944,574.10355,377.51979,567.29582Z"/><path class="cls-21" d="M550.98772,495.39337C534.60164,527.21343,511.069,563.88512,482.9663,586.28c-45.69732,36.41583-96.14392,42.40771-150.618,24.4176-29.36365-9.69739-55.12427-26.03082-79.00232-44.946-42.06833-33.32483-84.62024-30.93872-128.7305-5.17182-17.32925,10.12284-33.36614,21.96527-49.36462,34.1695a1.3782,1.3782,0,0,1-2.01512-1.80742c8.50167-14.25115,18.65433-27.165,31.53834-37.94905a1.61671,1.61671,0,0,1,.166-.1218c26.905-17.21643,27.62579-18.8206,57.383-28.276,2.12759-.76458,34.78172-4.981,37.0255-4.83795a1.49758,1.49758,0,0,1,.41109.08649c16.91643,6.10109,32.98768,13.87243,47.62734,24.43869.03858.02784.07686.05828.11276.0895,20.15181,17.52925,26.147,26.444,50.35824,36.97233a1.17145,1.17145,0,0,1,.16453.08729c6.9128,4.39131,50.57832,24.33032,97.07832,24.16365,42.47776-.15225,85.16666-26.83333,104.66666-51.08333,16.83785-20.93937,30.31818-35.04187,44.5-53.75"/><path class="cls-22" d="M550.98772,495.39337c-17.48377,24.11831-19.43878,27.27592-25.13695,34.36831-8.54678,10.638-22.2849,23.27891-27.091,27.66661-13.54784-18.94439-14.38118-30.49994-57.65349-39.3194,16.8244-21.53222,44.84692-57.56873,61.67688-79.1062"/><path class="cls-23" d="M308.08455,584.24238c-13.42823,2.07652-40.75731-19.12748-61.74385-35.94407,1.06089-3.83637,0-5.14774,4.76007-10.81441,4.92557-12.60162,8.33333-14.77778,36.51545-18.85435,1.44136-.2085,1.72157-1.18706,3.21764-.63481,27.89746,17.59375,76.873,57.33389,107.34071,43.473-18.30727,8.32868-44.71319,17.82419-68.51825,20.629C319.67016,583.27326,314.089,584.0962,308.08455,584.24238Z"/><path class="cls-24" d="M600.71611,405.48117c-11.12925-16.26718-31.40225-19.75377-47.01427-29.35173,20.68517-23.40992,44.42509-46.85116,71.82536-62.60658,15.48052-2.315,28.18008,5.23555,30.68584,18.24422A424.91047,424.91047,0,0,0,600.71611,405.48117Z"/><path class="cls-25" d="M295.64584,521.1659c-25.28269,2.5473-39.13924,14.14357-47.23348,28.78967-11.7391-10.8961-22.06159-18.61056-47.96724-25.52991,5.3323-16.207,12.556-23.09394,27.90565-23.74731,2.8876-.12293.58333-.83334,8.60842-.48931C257.35754,499.949,279.17908,509.71991,295.64584,521.1659Z"/><path class="cls-26" d="M656.213,331.76708c-7.52924-10.62327-18.14964-16.04783-30.68859-18.24263,20.93943-15.60025,44.73134-24.60326,69.96551-30.27456,6.39758,2.71367,10.87093,6.61162,8.9096,14.46988C686.07225,305.8645,670.73945,318.24539,656.213,331.76708Z"/><path class="cls-27" d="M200.44511,524.42563c-44.56657-.60839-71.45545,20.72494-97.192,31.86134,17.47262-14.98346,26.71185-23.87887,41.14047-32.42533,11.929-4.12795,23.76663-8.71739,36.80715-6.78519,21.12231,3.12967,14.22978,5.21175,19.24443,7.34918"/><path class="cls-28" d="M200.44408,524.42584c-32.99139-4.65665-54.48915-1.685-56.05055-.5642,27.62359-19.82841,64.55851-27.66779,98.49086-23.53132-16.46,1.62168-31.72807,10.32025-42.44031,24.09552"/><path class="cls-29" d="M713.596,280.3174c25.0315-2.96641,47.87876,3.29,69.19685,16.90167-22.87216-6.108-45.76037-8.382-68.89375-2.646C709.03827,296.28251,708.881,280.81924,713.596,280.3174Z"/><path class="cls-29" d="M713.90086,294.57308q-4.751,1.57352-9.5,3.14691-4.45595-7.23546-8.91-14.47032c6.90159-1.363,8.25576-1.988,18.10519-2.93227"/><path class="cls-30" d="M549.95953,496.7719c-28.52543-40.67689-62.22362-38.3684-58.90043-42.63522,13.5-17.33333,39.41435-53.37464,62.64274-78.00724,18.55579,1.21658,39.2378,7.534,45.17413,23.70993,1.83226,4.99273,2.39063,4.216,1.0998,6.63064"/><line class="cls-31" x1="600.71611" y1="405.48117" x2="549.78321" y2="497.5712"/></g></svg>